<?xml version="1.0" encoding="UTF-8" standalone="no"?>
<!-- Created with Inkscape (http://www.inkscape.org/) -->

<svg
   xmlns:dc="http://purl.org/dc/elements/1.1/"
   xmlns:cc="http://creativecommons.org/ns#"
   xmlns:rdf="http://www.w3.org/1999/02/22-rdf-syntax-ns#"
   xmlns:svg="http://www.w3.org/2000/svg"
   xmlns="http://www.w3.org/2000/svg"
   xmlns:xlink="http://www.w3.org/1999/xlink"
   xmlns:sodipodi="http://sodipodi.sourceforge.net/DTD/sodipodi-0.dtd"
   xmlns:inkscape="http://www.inkscape.org/namespaces/inkscape"
   width="570"
   height="152"
   viewBox="0 0 150.8125 40.216667"
   version="1.1"
   id="svg8"
   inkscape:version="0.92.0 unknown"
   sodipodi:docname="logo.svg">
  <defs
     id="defs2">
    <linearGradient
       inkscape:collect="always"
       id="linearGradient5503">
      <stop
         style="stop-color:#fffdf8;stop-opacity:0.09803922"
         offset="0"
         id="stop5499" />
      <stop
         style="stop-color:#f5cf38;stop-opacity:0;"
         offset="1"
         id="stop5501" />
    </linearGradient>
    <linearGradient
       inkscape:collect="always"
       xlink:href="#linearGradient5503"
       id="linearGradient5505"
       x1="0.1193141"
       y1="246.25317"
       x2="50.927597"
       y2="297.06146"
       gradientUnits="userSpaceOnUse"
       gradientTransform="translate(-5.2916665,-240.90828)" />
  </defs>
  <sodipodi:namedview
     id="base"
     pagecolor="#1f1f1f"
     bordercolor="#666666"
     borderopacity="1.0"
     inkscape:pageopacity="0"
     inkscape:pageshadow="2"
     inkscape:zoom="1"
     inkscape:cx="372.23885"
     inkscape:cy="101.93784"
     inkscape:document-units="mm"
     inkscape:current-layer="layer2"
     showgrid="false"
     units="px"
     inkscape:snap-global="false"
     inkscape:window-width="1855"
     inkscape:window-height="1176"
     inkscape:window-x="65"
     inkscape:window-y="24"
     inkscape:window-maximized="1" />
  <metadata
     id="metadata5">
    <rdf:RDF>
      <cc:Work
         rdf:about="">
        <dc:format>image/svg+xml</dc:format>
        <dc:type
           rdf:resource="http://purl.org/dc/dcmitype/StillImage" />
        <dc:title></dc:title>
      </cc:Work>
    </rdf:RDF>
  </metadata>
  <g
     inkscape:label="レイヤー 1"
     inkscape:groupmode="layer"
     id="layer1"
     transform="translate(0,-256.78332)">
    <g
       id="g5530"
       transform="translate(-5.1045778,5.291637)">
      <g
         style="stroke-width:0.21158884"
         transform="matrix(4.7261474,0,0,4.7261474,6.5063266,-1111.5414)"
         id="g4798">
        <path
           inkscape:connector-curvature="0"
           style="opacity:1;fill:#fdfdff;fill-opacity:1;fill-rule:nonzero;stroke:none;stroke-width:0.01679486;stroke-linecap:round;stroke-linejoin:miter;stroke-miterlimit:4;stroke-dasharray:none;stroke-opacity:1"
           d="m 11.641666,295.41248 c 2e-6,0.29225 -0.236914,0.52917 -0.529166,0.52917 -0.292252,0 -0.529169,-0.23692 -0.529167,-0.52917 v -5.02708 c -2e-6,-0.29225 0.236914,-0.52917 0.529166,-0.52917 0.292252,0 0.529169,0.23692 0.529167,0.52917 z"
           id="path4509-3-5"
           sodipodi:nodetypes="csccscc" />
        <path
           inkscape:connector-curvature="0"
           style="opacity:1;fill:#fdfdff;fill-opacity:1;fill-rule:nonzero;stroke:none;stroke-width:0.01679486;stroke-linecap:round;stroke-linejoin:miter;stroke-miterlimit:4;stroke-dasharray:none;stroke-opacity:1"
           d="m 11.339722,293.74659 1.78219,-1.78219 c 0.206659,-0.20666 0.541712,-0.20666 0.748362,-1e-5 0.206647,0.20666 0.206654,0.54171 0,0.74836 l -1.782201,1.78219"
           id="path4509-3-6"
           sodipodi:nodetypes="csccc"
           inkscape:transform-center-x="-0.91178462"
           inkscape:transform-center-y="1.011252" />
        <path
           inkscape:connector-curvature="0"
           style="opacity:1;fill:#fdfdff;fill-opacity:1;fill-rule:nonzero;stroke:none;stroke-width:0.01679486;stroke-linecap:round;stroke-linejoin:miter;stroke-miterlimit:4;stroke-dasharray:none;stroke-opacity:1"
           d="m 12.074874,293.05683 1.981476,1.98147 c 0.20666,0.20666 0.206658,0.54172 1.3e-5,0.74836 -0.206665,0.20666 -0.54171,0.20665 -0.74836,0 l -1.981477,-1.98147"
           id="path4509-3-6-9"
           sodipodi:nodetypes="csccc" />
      </g>
      <g
         style="stroke-width:0.21158884"
         transform="matrix(4.7261474,0,0,4.7261474,6.5063266,-1111.5414)"
         id="g4910">
        <path
           style="opacity:1;fill:#fdfdff;fill-opacity:1;fill-rule:nonzero;stroke:none;stroke-width:0.01679486;stroke-linecap:round;stroke-linejoin:miter;stroke-miterlimit:4;stroke-dasharray:none;stroke-opacity:1"
           d="m 16.333711,291.9729 a 1.984375,1.984375 0 0 0 -1.984375,1.98438 1.984375,1.984375 0 0 0 1.984375,1.98437 1.984375,1.984375 0 0 0 1.984375,-1.98437 1.984375,1.984375 0 0 0 -1.984375,-1.98438 z m -0.0016,1.05988 a 0.92604165,0.92604165 0 0 1 0.926042,0.92605 0.92604165,0.92604165 0 0 1 -0.926042,0.92604 0.92604165,0.92604165 0 0 1 -0.926042,-0.92604 0.92604165,0.92604165 0 0 1 0.926042,-0.92605 z"
           id="path4611"
           inkscape:connector-curvature="0" />
        <path
           inkscape:connector-curvature="0"
           style="opacity:1;fill:#fdfdff;fill-opacity:1;fill-rule:nonzero;stroke:none;stroke-width:0.01679486;stroke-linecap:round;stroke-linejoin:miter;stroke-miterlimit:4;stroke-dasharray:none;stroke-opacity:1"
           d="m 20.579764,291.9729 a 1.984375,1.984375 0 0 0 -1.984375,1.98437 1.984375,1.984375 0 0 0 1.984375,1.98438 1.984375,1.984375 0 0 0 1.984375,-1.98438 1.984375,1.984375 0 0 0 -1.984375,-1.98437 z m -0.0016,1.05988 a 0.92604167,0.92604167 0 0 1 0.926042,0.92605 0.92604167,0.92604167 0 0 1 -0.926042,0.92604 0.92604167,0.92604167 0 0 1 -0.926042,-0.92604 0.92604167,0.92604167 0 0 1 0.926042,-0.92605 z"
           id="path4611-6" />
      </g>
      <g
         style="stroke-width:0.21158884"
         transform="matrix(4.7261474,0,0,4.7261474,4.1852686,-1111.5414)"
         id="g4906">
        <g
           style="stroke-width:0.21158884"
           id="g4883"
           transform="translate(-0.82165075,1.2500226e-6)">
          <path
             id="path4509-3-3"
             d="m 29.481642,291.67976 a 0.52916669,0.52916669 0 0 1 -0.529167,0.52917 0.52916669,0.52916669 0 0 1 -0.529166,-0.52917 0.52916669,0.52916669 0 0 1 0.529166,-0.52917 0.52916669,0.52916669 0 0 1 0.529167,0.52917 z"
             style="opacity:1;fill:#fdfdff;fill-opacity:1;fill-rule:nonzero;stroke:none;stroke-width:0.01679486;stroke-linecap:round;stroke-linejoin:miter;stroke-miterlimit:4;stroke-dasharray:none;stroke-opacity:1"
             inkscape:connector-curvature="0" />
          <path
             sodipodi:nodetypes="csccscc"
             id="path4509-3-5-61-8"
             d="m 29.481642,295.41248 c 2e-6,0.29225 -0.236914,0.52917 -0.529166,0.52917 -0.292252,0 -0.529169,-0.23692 -0.529167,-0.52917 v -2.29059 c -2e-6,-0.29225 0.236914,-0.52917 0.529166,-0.52917 0.292252,0 0.529169,0.23692 0.529167,0.52917 z"
             style="opacity:1;fill:#fdfdff;fill-opacity:1;fill-rule:nonzero;stroke:none;stroke-width:0.01679486;stroke-linecap:round;stroke-linejoin:miter;stroke-miterlimit:4;stroke-dasharray:none;stroke-opacity:1"
             inkscape:connector-curvature="0" />
        </g>
        <g
           style="stroke-width:0.21158884"
           transform="translate(-2.8528965,-0.10965875)"
           id="g4879">
          <path
             id="path4509-3-3-6"
             d="m 33.129157,291.78942 a 0.52916669,0.52916669 0 0 1 -0.529167,0.52917 0.52916669,0.52916669 0 0 1 -0.529166,-0.52917 0.52916669,0.52916669 0 0 1 0.529166,-0.52917 0.52916669,0.52916669 0 0 1 0.529167,0.52917 z"
             style="opacity:1;fill:#fdfdff;fill-opacity:1;fill-rule:nonzero;stroke:none;stroke-width:0.01679486;stroke-linecap:round;stroke-linejoin:miter;stroke-miterlimit:4;stroke-dasharray:none;stroke-opacity:1"
             inkscape:connector-curvature="0" />
          <path
             sodipodi:nodetypes="csccscc"
             id="path4509-3-5-61-8-6"
             d="m 33.129157,295.52214 c 2e-6,0.29225 -0.236914,0.52917 -0.529166,0.52917 -0.292252,0 -0.529169,-0.23692 -0.529167,-0.52917 v -2.29059 c -2e-6,-0.29225 0.236914,-0.52917 0.529166,-0.52917 0.292252,0 0.529169,0.23692 0.529167,0.52917 z"
             style="opacity:1;fill:#fdfdff;fill-opacity:1;fill-rule:nonzero;stroke:none;stroke-width:0.01679486;stroke-linecap:round;stroke-linejoin:miter;stroke-miterlimit:4;stroke-dasharray:none;stroke-opacity:1"
             inkscape:connector-curvature="0" />
        </g>
        <g
           style="stroke-width:0.21158884"
           id="g4888"
           transform="translate(-0.70359609)">
          <path
             sodipodi:nodetypes="csccscc"
             id="path4509-3-5-6"
             d="m 25.164637,295.41248 c 2e-6,0.29225 -0.236914,0.52917 -0.529166,0.52917 -0.292252,0 -0.529169,-0.23692 -0.529167,-0.52917 v -5.02708 c -2e-6,-0.29225 0.236914,-0.52917 0.529166,-0.52917 0.292252,0 0.529169,0.23692 0.529167,0.52917 z"
             style="opacity:1;fill:#fdfdff;fill-opacity:1;fill-rule:nonzero;stroke:none;stroke-width:0.01679486;stroke-linecap:round;stroke-linejoin:miter;stroke-miterlimit:4;stroke-dasharray:none;stroke-opacity:1"
             inkscape:connector-curvature="0" />
          <path
             sodipodi:nodetypes="sccsccsccs"
             id="path4509-3-3-2"
             d="m 26.084012,291.97299 c -1.095938,0 -1.749691,0.88834 -1.749694,1.98428 l 0.827089,0.002 c -5e-6,-0.51144 0.088,-0.92605 0.599447,-0.92605 0.511442,0 0.926536,0.41461 0.926531,0.92605 l 0.0016,1.45321 c -2e-6,0.29225 0.236914,0.52917 0.529166,0.52917 0.292252,0 0.529169,-0.23692 0.529167,-0.52917 v -1.45521 c -3e-6,-1.09594 -0.567368,-1.98428 -1.663306,-1.98428 z"
             style="opacity:1;fill:#fdfdff;fill-opacity:1;fill-rule:nonzero;stroke:none;stroke-width:0.01679486;stroke-linecap:round;stroke-linejoin:miter;stroke-miterlimit:4;stroke-dasharray:none;stroke-opacity:1"
             inkscape:connector-curvature="0" />
        </g>
      </g>
    </g>
    <g
       id="g5536"
       transform="translate(-5.2916665,5.291637)">
      <rect
         ry="3.6500788"
         y="251.49171"
         x="5.2916665"
         height="40.216564"
         width="40.216667"
         id="rect4485"
         style="opacity:1;vector-effect:none;fill:#f5cf38;fill-opacity:1;fill-rule:nonzero;stroke:none;stroke-width:0.07937501;stroke-linecap:round;stroke-linejoin:miter;stroke-miterlimit:4;stroke-dasharray:none;stroke-dashoffset:0;stroke-opacity:1" />
      <path
         transform="matrix(0.26458333,0,0,0.26458333,0,246.19999)"
         id="rect4485-5"
         d="m 20,157.20508 v 1 C 20,165.84783 26.152174,172 33.794922,172 H 158.20508 C 165.84783,172 172,165.84783 172,158.20508 v -1 C 172,164.84783 165.84783,171 158.20508,171 H 33.794922 C 26.152174,171 20,164.84783 20,157.20508 Z"
         style="opacity:1;vector-effect:none;fill:#947806;fill-opacity:1;fill-rule:nonzero;stroke:none;stroke-width:0.30000004;stroke-linecap:round;stroke-linejoin:miter;stroke-miterlimit:4;stroke-dasharray:none;stroke-dashoffset:0;stroke-opacity:1"
         inkscape:connector-curvature="0" />
      <path
         id="rect4485-5-9"
         d="m 5.2916668,287.79379 v 0.26458 c 0,2.02215 1.6277625,3.64991 3.6499065,3.64991 H 41.858427 c 2.022144,0 3.649906,-1.62776 3.649906,-3.64991 v -0.26458 c 0,2.02214 -1.627762,3.64991 -3.649906,3.64991 H 8.9415733 c -2.022144,0 -3.6499065,-1.62777 -3.6499065,-3.64991 z"
         style="opacity:0.2;vector-effect:none;fill:#bf360c;fill-opacity:1;fill-rule:nonzero;stroke:none;stroke-width:0.07937501;stroke-linecap:round;stroke-linejoin:miter;stroke-miterlimit:4;stroke-dasharray:none;stroke-dashoffset:0;stroke-opacity:1"
         inkscape:connector-curvature="0" />
      <path
         id="rect4485-5-9-4"
         d="m 5.2916666,255.4062 v -0.26458 c 0,-2.02215 1.627763,-3.64991 3.649907,-3.64991 H 41.858428 c 2.022144,0 3.649906,1.62776 3.649906,3.64991 v 0.26458 c 0,-2.02214 -1.627762,-3.64991 -3.649906,-3.64991 H 8.9415736 c -2.022144,0 -3.649907,1.62777 -3.649907,3.64991 z"
         style="opacity:0.2;vector-effect:none;fill:#ffffff;fill-opacity:1;fill-rule:nonzero;stroke:none;stroke-width:0.07937501;stroke-linecap:round;stroke-linejoin:miter;stroke-miterlimit:4;stroke-dasharray:none;stroke-dashoffset:0;stroke-opacity:1"
         inkscape:connector-curvature="0" />
    </g>
  </g>
  <g
     inkscape:groupmode="layer"
     id="layer3"
     inkscape:label="kanji"
     style="display:inline"
     transform="translate(0,-10.583333)">
    <g
       aria-label="漢"
       transform="matrix(1.0000013,0,0,0.99999869,-5.2916665,-240.90835)"
       style="font-style:normal;font-weight:normal;font-size:50.27077103px;line-height:31.41923141px;font-family:sans-serif;letter-spacing:0px;word-spacing:0px;fill:#010101;fill-opacity:1;stroke:none;stroke-width:0.26458332px;stroke-linecap:butt;stroke-linejoin:miter;stroke-opacity:1"
       id="text4823">
      <path
         d="m 24.092926,263.57378 h 2.882191 v -2.1784 h 4.960049 v 2.1784 h 2.88219 v -2.1784 h 5.563298 v -2.58057 h -5.563298 v -2.61408 h -2.88219 v 2.61408 h -4.960049 v -2.61408 h -2.882191 v 2.61408 h -4.960049 v 2.58057 h 4.960049 z m -4.993563,-3.75355 c -1.206498,-1.17299 -3.75355,-2.58057 -5.730867,-3.41841 l -1.74272,2.31245 c 1.977317,0.93839 4.490855,2.51354 5.630326,3.65301 z m -1.709206,8.68008 c -1.240012,-1.07244 -3.787064,-2.41299 -5.764381,-3.18381 l -1.7427195,2.34597 c 2.0443445,0.87136 4.5243685,2.34597 5.6973535,3.45192 z m -1.206498,5.49627 c -1.642178,3.82058 -3.854092,8.11035 -5.395729,10.69092 l 2.748135,1.84326 c 1.709206,-3.1503 3.585982,-7.13845 5.060591,-10.6574 z m 7.306018,-4.62491 v -2.9157 h 4.457341 v 2.9157 z m 12.199039,0 h -4.691938 v -2.9157 h 4.691938 z m 4.926535,10.95903 v -2.48002 H 30.561098 c 0.167569,-0.63677 0.268111,-1.27353 0.335138,-1.91029 h 8.378461 v -2.44651 h -8.277919 v -1.84327 h 7.574129 v -7.44007 H 20.741542 v 7.44007 h 7.205476 v 1.84327 h -7.842239 v 2.44651 h 7.741698 c -0.06703,0.63676 -0.201083,1.27352 -0.402166,1.91029 h -8.680086 v 2.48002 h 7.272504 c -1.441095,1.70921 -3.887606,3.21733 -8.076836,4.28977 0.636763,0.56974 1.508123,1.70921 1.876775,2.37949 5.295187,-1.60867 8.143864,-3.88761 9.651987,-6.46818 1.910289,3.21733 5.161132,5.39573 9.450904,6.43466 0.402166,-0.80433 1.273526,-1.97732 1.977317,-2.58056 -3.653009,-0.60325 -6.5352,-1.97732 -8.344947,-4.05518 z"
         style="font-style:normal;font-variant:normal;font-weight:500;font-stretch:normal;font-size:33.51384354px;font-family:'Noto Sans CJK JP';-inkscape-font-specification:'Noto Sans CJK JP Medium';fill:#010101;fill-opacity:1;stroke-width:0.26458332px"
         id="path5538"
         inkscape:connector-curvature="0" />
    </g>
  </g>
  <g
     inkscape:groupmode="layer"
     id="layer2"
     inkscape:label="tint"
     transform="translate(0,-10.583333)">
    <rect
       style="opacity:1;vector-effect:none;fill:url(#linearGradient5505);fill-opacity:1;fill-rule:nonzero;stroke:none;stroke-width:0.07937501;stroke-linecap:round;stroke-linejoin:miter;stroke-miterlimit:4;stroke-dasharray:none;stroke-dashoffset:0;stroke-opacity:1"
       id="rect4485-54"
       width="40.216667"
       height="40.216564"
       x="-8.8817842e-16"
       y="10.583435"
       ry="3.6500788" />
  </g>
</svg>
